<svg width="14" height="14" viewBox="0 0 14 14" fill="none" xmlns="http://www.w3.org/2000/svg">
<g clip-path="url(#clip0_2_158)">
<path d="M12.6875 14H1.3125C0.58625 14 0 13.4137 0 12.6875V2.1875C0 1.46125 0.58625 0.875 1.3125 0.875H12.6875C13.4137 0.875 14 1.46125 14 2.1875V12.6875C14 13.4137 13.4137 14 12.6875 14ZM1.3125 1.75C1.0675 1.75 0.875 1.9425 0.875 2.1875V12.6875C0.875 12.9325 1.0675 13.125 1.3125 13.125H12.6875C12.9325 13.125 13.125 12.9325 13.125 12.6875V2.1875C13.125 1.9425 12.9325 1.75 12.6875 1.75H1.3125Z" fill="#F7F8FD"/>
<path d="M3.9375 3.5C3.6925 3.5 3.5 3.3075 3.5 3.0625V0.4375C3.5 0.1925 3.6925 0 3.9375 0C4.1825 0 4.375 0.1925 4.375 0.4375V3.0625C4.375 3.3075 4.1825 3.5 3.9375 3.5ZM10.0625 3.5C9.8175 3.5 9.625 3.3075 9.625 3.0625V0.4375C9.625 0.1925 9.8175 0 10.0625 0C10.3075 0 10.5 0.1925 10.5 0.4375V3.0625C10.5 3.3075 10.3075 3.5 10.0625 3.5ZM13.5625 5.25H0.4375C0.1925 5.25 0 5.0575 0 4.8125C0 4.5675 0.1925 4.375 0.4375 4.375H13.5625C13.8075 4.375 14 4.5675 14 4.8125C14 5.0575 13.8075 5.25 13.5625 5.25Z" fill="#F7F8FD"/>
</g>
<defs>
<clipPath id="clip0_2_158">
<rect width="14" height="14" fill="white"/>
</clipPath>
</defs>
</svg>
