<svg width="37" height="37" viewBox="0 0 37 37" fill="none" xmlns="http://www.w3.org/2000/svg">
<g clip-path="url(#clip0_2_1322)">
<path fill-rule="evenodd" clip-rule="evenodd" d="M33.2169 7.87946C33.6504 8.31312 33.8939 8.90121 33.8939 9.5144C33.8939 10.1276 33.6504 10.7157 33.2169 11.1493L15.8839 28.4823C15.6549 28.7114 15.3829 28.8932 15.0836 29.0171C14.7843 29.1411 14.4635 29.205 14.1395 29.205C13.8155 29.205 13.4947 29.1411 13.1954 29.0171C12.8961 28.8932 12.6242 28.7114 12.3951 28.4823L3.78337 19.8721C3.5625 19.6588 3.38633 19.4036 3.26514 19.1215C3.14394 18.8393 3.08015 18.5359 3.07748 18.2288C3.07481 17.9218 3.13332 17.6173 3.2496 17.3331C3.36587 17.0489 3.53758 16.7907 3.75471 16.5735C3.97184 16.3564 4.23003 16.1847 4.51423 16.0684C4.79843 15.9522 5.10293 15.8937 5.40999 15.8963C5.71704 15.899 6.02049 15.9628 6.30262 16.084C6.58475 16.2052 6.83993 16.3813 7.05325 16.6022L14.1387 23.6877L29.9455 7.87946C30.1602 7.66457 30.4152 7.4941 30.6959 7.37779C30.9765 7.26149 31.2774 7.20162 31.5812 7.20162C31.885 7.20162 32.1858 7.26149 32.4665 7.37779C32.7471 7.4941 33.0021 7.66457 33.2169 7.87946Z" fill="#0DC599"/>
</g>
<defs>
<clipPath id="clip0_2_1322">
<rect width="37" height="37" fill="white"/>
</clipPath>
</defs>
</svg>
