<svg width="13" height="12" viewBox="0 0 13 12" fill="none" xmlns="http://www.w3.org/2000/svg">
<path d="M11.6667 10.5H12.8333V11.6667H0V10.5H1.16667V0.583333C1.16667 0.428624 1.22812 0.280251 1.33752 0.170854C1.44692 0.0614581 1.59529 0 1.75 0H11.0833C11.238 0 11.3864 0.0614581 11.4958 0.170854C11.6052 0.280251 11.6667 0.428624 11.6667 0.583333V10.5ZM4.08333 5.25V6.41667H5.83333V5.25H4.08333ZM4.08333 2.91667V4.08333H5.83333V2.91667H4.08333ZM4.08333 7.58333V8.75H5.83333V7.58333H4.08333ZM7 7.58333V8.75H8.75V7.58333H7ZM7 5.25V6.41667H8.75V5.25H7ZM7 2.91667V4.08333H8.75V2.91667H7Z" fill="#64748B"/>
</svg>
